<svg version="1.1" id="Layer_1" xmlns="http://www.w3.org/2000/svg" xmlns:xlink="http://www.w3.org/1999/xlink" x="0px" y="0px"
	 width="100%" viewBox="0 0 400 400" enable-background="new 0 0 400 400" xml:space="preserve">
<path fill="#000000" opacity="1.000000" stroke="none" 
	d="
M194.022781,152.990829 
	C191.889755,151.370422 190.021408,149.981705 188.115509,148.646561 
	C186.381317,147.431686 185.730057,145.861145 186.607971,143.895966 
	C187.624771,141.619919 189.542618,141.373947 191.655685,142.032120 
	C195.276138,143.159790 197.622498,146.175415 200.569061,148.315186 
	C202.931976,147.534134 203.017105,145.218369 203.929184,143.569626 
	C208.844055,134.685303 219.055710,129.129807 228.784927,129.917358 
	C232.967880,130.255966 234.823364,132.059235 234.233856,136.319321 
	C233.706741,140.128433 232.907104,143.840134 231.478226,147.427917 
	C230.042740,151.032257 226.899933,153.462631 224.803726,156.935837 
	C228.368805,158.910370 232.090759,159.890762 235.060577,162.418472 
	C246.323471,172.004715 245.170624,187.100433 240.084229,198.219193 
	C239.209824,200.130646 237.582550,200.986557 235.555634,200.151489 
	C233.426056,199.274094 232.593842,197.582275 233.281876,195.283051 
	C234.378372,191.618820 235.644547,188.003525 235.957245,184.141800 
	C237.089203,170.163467 227.642120,162.101395 214.142899,166.192368 
	C204.818909,169.018021 195.846115,168.550308 186.617859,166.207260 
	C178.272614,164.088409 170.866608,169.203247 169.390671,177.651672 
	C167.503098,188.456329 175.574203,206.289413 184.876282,212.237808 
	C187.433273,213.872955 189.512222,213.454636 191.726944,211.801682 
	C194.602066,209.655807 196.276337,206.528015 198.466171,203.816284 
	C201.266510,200.348541 204.351852,200.354996 207.205780,203.786499 
	C209.117859,206.085526 210.725998,208.645859 212.714569,210.870789 
	C215.716599,214.229614 219.053345,214.289032 222.217148,211.060257 
	C224.192810,209.044037 225.921051,206.787659 227.816879,204.690170 
	C229.309433,203.038864 231.087646,202.311920 233.122681,203.722977 
	C235.368439,205.280136 235.283813,207.306580 233.947021,209.393326 
	C232.052109,212.351379 229.933243,215.167389 227.140900,217.326279 
	C219.973267,222.867874 212.560928,222.233551 206.189453,215.705444 
	C205.169205,214.660110 204.551743,213.142883 202.850174,212.715027 
	C200.896957,213.087540 200.129715,214.960800 198.852188,216.182388 
	C192.589310,222.171005 186.578445,222.861526 179.514893,217.948105 
	C169.089584,210.696274 158.542770,188.530350 162.655594,174.421585 
	C166.112717,162.562134 176.575409,155.832443 188.618057,158.506424 
	C191.462616,159.138031 194.253784,160.389984 197.379623,159.974945 
	C197.669800,156.931412 195.766693,155.183456 194.022781,152.990829 
M216.785004,152.407776 
	C222.263077,149.242569 225.501419,144.788101 225.575119,138.157562 
	C216.387024,138.347763 208.658798,146.131927 209.104660,154.253845 
	C211.730240,155.148697 213.902039,153.797943 216.785004,152.407776 
z"/>
<path fill="#000000" opacity="1.000000" stroke="none" 
	d="
M178.416626,248.363220 
	C180.111069,250.570786 181.775635,252.437347 183.149536,254.497726 
	C184.390213,256.358337 185.281143,258.655609 182.912231,260.207001 
	C180.646881,261.690582 178.364594,260.815491 176.748962,258.789337 
	C175.198883,256.845337 173.947617,254.665436 172.438034,252.686066 
	C171.161285,251.011948 169.458542,249.910797 167.247040,250.568787 
	C164.840256,251.284866 165.364716,253.434464 165.367630,255.173813 
	C165.372375,257.997467 165.346634,260.853394 161.493500,260.708374 
	C157.733215,260.566864 157.763962,257.627228 157.768585,254.870392 
	C157.778915,248.720581 157.830582,242.570221 157.764069,236.421188 
	C157.723114,232.635544 159.562286,230.931152 163.242889,230.987747 
	C167.061584,231.046478 170.901901,230.871567 174.692474,231.227676 
	C177.913208,231.530243 181.055878,232.759415 182.109695,236.210037 
	C183.188293,239.741776 182.595551,243.146408 179.658737,245.791824 
	C178.951523,246.428894 177.855743,246.807312 178.416626,248.363220 
M173.851913,239.037109 
	C171.893234,237.711349 169.706314,238.144211 167.588440,238.306885 
	C166.244843,238.410095 165.514893,239.311874 165.632202,240.692078 
	C165.718353,241.705658 166.078568,243.042267 167.159531,242.927551 
	C169.825439,242.644684 173.474152,244.097977 173.851913,239.037109 
z"/>
<path fill="#000000" opacity="1.000000" stroke="none" 
	d="
M207.470764,249.108948 
	C204.889832,249.276413 202.726562,249.311310 200.565048,249.393127 
	C198.969086,249.453522 197.415588,249.767578 197.525101,251.823990 
	C197.623245,253.666672 199.177032,253.663757 200.508362,253.696625 
	C202.837769,253.754135 205.169312,253.722488 207.499924,253.735352 
	C209.757401,253.747818 211.461304,254.552826 211.670715,257.051575 
	C211.884476,259.602234 210.280090,260.778503 208.034317,260.829773 
	C203.213806,260.939880 198.385040,260.911041 193.565506,260.756561 
	C190.733109,260.665710 189.580872,258.978119 189.627060,256.118347 
	C189.737305,249.294037 189.739044,242.465790 189.639053,235.641266 
	C189.592224,232.445557 191.165009,231.004105 194.125961,230.952209 
	C198.618652,230.873459 203.115707,230.886581 207.607697,230.993988 
	C209.719452,231.044510 211.771271,231.696655 211.798203,234.286407 
	C211.825470,236.909439 210.144485,238.146133 207.603058,238.197113 
	C205.106918,238.247223 202.608627,238.198486 200.112930,238.260193 
	C198.920609,238.289673 197.613678,238.477524 197.643677,240.060440 
	C197.673157,241.615021 199.004272,241.779724 200.173676,241.853729 
	C201.999634,241.969299 203.839417,241.893570 205.660782,242.047455 
	C207.325333,242.188095 209.112335,242.416748 209.712997,244.349380 
	C210.320328,246.303436 209.807739,247.962112 207.470764,249.108948 
z"/>
<path fill="#000000" opacity="1.000000" stroke="none" 
	d="
M239.867310,235.546402 
	C239.191895,240.454147 237.783646,241.297562 233.792313,239.208084 
	C230.979782,237.735687 228.409256,236.656189 225.565063,239.578018 
	C227.334396,241.837402 229.751205,242.183472 232.123779,242.756683 
	C238.442352,244.283173 241.625961,247.633026 241.293030,252.211029 
	C240.951721,256.904297 236.831970,260.551941 230.867081,261.207458 
	C226.822678,261.651917 222.882111,261.100159 219.384537,258.843353 
	C217.599533,257.691589 216.260864,256.024323 217.359146,253.814590 
	C218.424194,251.671677 220.355499,251.721268 222.535294,252.241135 
	C225.478973,252.943161 228.163849,255.598221 231.513641,253.674469 
	C232.058594,253.361511 232.507080,252.880539 232.958603,252.511185 
	C232.479202,249.809448 230.161148,250.272034 228.623398,249.665863 
	C226.472397,248.817963 224.083786,248.524475 222.007492,247.546585 
	C218.801971,246.036850 216.824783,243.501480 216.802322,239.709457 
	C216.780533,236.030823 218.910889,233.927399 221.873001,232.358627 
	C227.892242,229.170746 234.260086,230.181015 239.867310,235.546402 
z"/>
<path fill="#000000" opacity="1.000000" stroke="none" 
	d="
M271.718384,236.083832 
	C271.701141,242.791046 271.638184,249.115280 271.600800,255.439667 
	C271.586334,257.886230 271.571472,260.215210 268.149170,260.318909 
	C264.611755,260.425995 264.652557,258.050812 264.666565,255.614899 
	C264.684814,252.438339 265.277924,249.149048 260.164856,249.253281 
	C256.590668,249.326126 254.762299,250.255768 255.202225,254.076355 
	C255.315369,255.058975 255.218948,256.076172 255.129913,257.069489 
	C254.935181,259.242035 253.759888,260.335205 251.525345,260.323303 
	C249.397263,260.311951 247.822098,259.512207 247.794846,257.238983 
	C247.704941,249.744324 247.708694,242.247574 247.777069,234.752548 
	C247.799576,232.284790 249.479797,231.182205 251.741760,231.203964 
	C254.251907,231.228073 254.939926,232.963089 255.259521,235.203156 
	C255.595200,237.555878 253.803391,240.817123 257.779022,241.841934 
	C262.540222,243.069275 264.465057,241.613403 264.673767,236.613724 
	C264.767578,234.367096 264.131927,231.614182 267.592590,231.271057 
	C270.796692,230.953369 271.462952,233.165176 271.718384,236.083832 
z"/>
<path fill="#000000" opacity="1.000000" stroke="none" 
	d="
M149.420212,238.028046 
	C146.833374,238.090286 144.672180,238.038254 142.518524,238.142090 
	C140.782425,238.225800 138.432251,237.795471 138.520721,240.568039 
	C138.598083,242.992004 140.727509,242.562271 142.320145,242.630356 
	C143.977814,242.701202 145.639862,242.699493 147.299591,242.684769 
	C149.312698,242.666916 150.426514,243.559723 150.424271,245.642563 
	C150.422058,247.704926 149.798141,249.253632 147.367981,249.286606 
	C146.704178,249.295624 146.027664,249.411896 145.378906,249.321548 
	C140.245468,248.606705 137.418137,250.189560 138.144485,255.988617 
	C138.476730,258.641083 137.193939,260.590973 134.210236,260.562073 
	C130.955154,260.530579 130.697601,258.158875 130.703918,255.669571 
	C130.720322,249.194824 130.797211,242.718872 130.697372,236.245743 
	C130.646912,232.974365 131.971237,231.178864 135.291992,231.132660 
	C139.772079,231.070343 144.254303,231.031845 148.733627,231.104645 
	C150.664749,231.136032 152.384308,231.782883 152.714554,234.067566 
	C153.033707,236.275681 151.940002,237.507889 149.420212,238.028046 
z"/>
<path fill="#000000" opacity="1.000000" stroke="none" 
	d="
M215.833008,279.253265 
	C215.712311,277.022400 215.657211,275.205200 215.654739,273.387970 
	C215.645935,266.915070 218.310028,264.983307 224.536163,266.862122 
	C226.340378,267.406586 227.229950,268.550995 227.521240,270.379211 
	C227.830673,272.321350 226.409668,273.813660 226.325424,275.620209 
	C226.245316,277.337830 228.275696,278.895996 226.726761,280.756439 
	C225.063828,281.483612 224.371643,280.280457 223.584534,279.196533 
	C221.489136,276.310944 219.489990,273.959900 218.016052,279.670532 
	C217.674896,280.992340 216.630066,280.783356 215.833008,279.253265 
z"/>
<path fill="#000000" opacity="1.000000" stroke="none" 
	d="
M162.630142,272.803040 
	C165.026672,272.906036 167.719818,271.808319 168.129242,275.101318 
	C168.511841,278.178436 166.913879,280.278168 164.032150,281.109131 
	C160.376602,282.163239 156.953384,281.668335 154.949890,278.008392 
	C152.981003,274.411652 153.337219,270.672546 156.434570,268.002625 
	C159.322418,265.513275 162.910583,265.710327 166.221451,267.618988 
	C167.403961,268.300690 168.302139,269.331085 167.434799,270.875824 
	C166.188950,271.917175 165.260971,271.101288 164.331848,270.399384 
	C162.252670,268.828766 160.259659,269.037750 158.576645,270.911713 
	C157.236450,272.403931 156.982605,274.214752 158.134369,275.972382 
	C159.455505,277.988403 161.111130,279.109680 163.407745,277.581512 
	C165.054703,275.389282 158.516174,275.534607 162.630142,272.803040 
z"/>
<path fill="#000000" opacity="1.000000" stroke="none" 
	d="
M248.304413,273.080536 
	C247.798431,279.932343 244.323151,282.509491 238.032181,281.301331 
	C236.295792,280.967834 235.338058,280.083160 235.139771,278.446075 
	C234.942108,276.814240 234.772659,275.140564 234.917679,273.514374 
	C235.158508,270.814117 233.740875,267.231384 238.430237,266.666809 
	C244.620834,265.921539 247.014023,267.295349 248.304413,273.080536 
M244.268402,271.432648 
	C243.936752,271.073425 243.669312,270.595825 243.262512,270.375183 
	C241.380203,269.354248 239.141129,268.672882 238.616791,271.487305 
	C238.230408,273.561157 236.912125,276.753021 240.492386,277.619812 
	C243.016296,278.230774 244.522766,276.726135 244.644150,274.078400 
	C244.673935,273.428680 244.570023,272.772858 244.268402,271.432648 
z"/>
<path fill="#000000" opacity="1.000000" stroke="none" 
	d="
M197.016968,273.121887 
	C197.832336,271.239563 198.387909,269.654907 199.193726,268.209808 
	C200.084137,266.612976 201.519424,266.414215 203.017975,267.378876 
	C205.184158,268.773224 207.895584,278.069275 206.701904,281.616150 
	C203.348373,276.133942 199.789032,276.307953 196.551239,281.548096 
	C193.407455,278.224243 196.491272,275.955414 197.016968,273.121887 
z"/>
<path fill="#000000" opacity="1.000000" stroke="none" 
	d="
M183.545013,276.113831 
	C184.472046,272.834473 182.299301,269.093048 186.655838,266.420074 
	C187.861481,271.020844 187.959564,275.143738 186.385941,279.099396 
	C185.503738,281.317017 183.202759,281.759766 180.868301,281.451996 
	C178.523193,281.142822 176.498047,280.011322 176.079681,277.746643 
	C175.438782,274.277435 175.005035,270.660583 176.716171,266.886078 
	C180.374100,268.364197 178.864212,271.389709 179.257065,273.652435 
	C179.683777,276.110260 179.389633,279.446960 183.545013,276.113831 
z"/>
</svg>